<svg width="310" height="138" viewBox="0 0 310 138" fill="none" xmlns="http://www.w3.org/2000/svg">
    <mask id="path-1-inside-1_312_189" fill="white">
        <path fill-rule="evenodd" clip-rule="evenodd" d="M91.1131 0H222.025V50.2715H280C296.569 50.2715 310 63.7029 310 80.2715V108C310 118.686 304.413 128.068 296 133.382V86H171V138H30C13.4315 138 0 124.569 0 108V80.2715C0 63.703 13.4315 50.2715 30 50.2715H91.1131V0Z"/>
    </mask>
    <path fill-rule="evenodd" clip-rule="evenodd" d="M91.1131 0H222.025V50.2715H280C296.569 50.2715 310 63.7029 310 80.2715V108C310 118.686 304.413 128.068 296 133.382V86H171V138H30C13.4315 138 0 124.569 0 108V80.2715C0 63.703 13.4315 50.2715 30 50.2715H91.1131V0Z" fill="#88DE5F" fill-opacity="0.7"/>
    <path d="M222.025 0H225.025V-3H222.025V0ZM91.1131 0V-3H88.1131V0H91.1131ZM222.025 50.2715H219.025V53.2715H222.025V50.2715ZM296 133.382H293V138.825L297.602 135.918L296 133.382ZM296 86H299V83H296V86ZM171 86V83H168V86H171ZM171 138V141H174V138H171ZM91.1131 50.2715V53.2715H94.1131V50.2715H91.1131ZM222.025 -3H91.1131V3H222.025V-3ZM225.025 50.2715V0H219.025V50.2715H225.025ZM280 47.2715H222.025V53.2715H280V47.2715ZM313 80.2715C313 62.0461 298.225 47.2715 280 47.2715V53.2715C294.912 53.2715 307 65.3598 307 80.2715H313ZM313 108V80.2715H307V108H313ZM297.602 135.918C306.848 130.077 313 119.758 313 108H307C307 117.614 301.977 126.058 294.398 130.845L297.602 135.918ZM293 86V133.382H299V86H293ZM171 89H296V83H171V89ZM174 138V86H168V138H174ZM30 141H171V135H30V141ZM-3 108C-3 126.225 11.7746 141 30 141V135C15.0883 135 3 122.912 3 108H-3ZM-3 80.2715V108H3V80.2715H-3ZM30 47.2715C11.7746 47.2715 -3 62.0461 -3 80.2715H3C3 65.3598 15.0883 53.2715 30 53.2715V47.2715ZM91.1131 47.2715H30V53.2715H91.1131V47.2715ZM88.1131 0V50.2715H94.1131V0H88.1131Z" fill="black" mask="url(#path-1-inside-1_312_189)"/>
</svg>
