
<svg width="319" height="110" viewBox="0 0 319 110" fill="none" xmlns="http://www.w3.org/2000/svg">
<mask id="path-1-inside-1_312_179" fill="white">
    <path fill-rule="evenodd" clip-rule="evenodd" d="M30 0C13.4315 0 0 13.4315 0 30V80C0 96.5685 13.4315 110 30 110H180V59H305V105.382C313.413 100.067 319 90.6862 319 80V30C319 13.4315 305.569 0 289 0H30Z"/>
</mask>
<path fill-rule="evenodd" clip-rule="evenodd" d="M30 0C13.4315 0 0 13.4315 0 30V80C0 96.5685 13.4315 110 30 110H180V59H305V105.382C313.413 100.067 319 90.6862 319 80V30C319 13.4315 305.569 0 289 0H30Z" fill="#EBDB49" fill-opacity="0.7"/>
<path d="M180 110V113H183V110H180ZM180 59V56H177V59H180ZM305 59H308V56H305V59ZM305 105.382H302V110.825L306.602 107.918L305 105.382ZM3 30C3 15.0883 15.0883 3 30 3V-3C11.7746 -3 -3 11.7746 -3 30H3ZM3 80V30H-3V80H3ZM30 107C15.0883 107 3 94.9117 3 80H-3C-3 98.2254 11.7746 113 30 113V107ZM180 107H30V113H180V107ZM183 110V59H177V110H183ZM180 62H305V56H180V62ZM302 59V105.382H308V59H302ZM316 80C316 89.6144 310.977 98.0577 303.398 102.845L306.602 107.918C315.848 102.077 322 91.7581 322 80H316ZM316 30V80H322V30H316ZM289 3C303.912 3 316 15.0883 316 30H322C322 11.7746 307.225 -3 289 -3V3ZM30 3H289V-3H30V3Z" fill="black" mask="url(#path-1-inside-1_312_179)"/>
</svg>
