<svg width="239" height="162" viewBox="0 0 239 162" fill="none" xmlns="http://www.w3.org/2000/svg">
    <mask id="path-1-inside-1_312_211" fill="white">
        <path fill-rule="evenodd" clip-rule="evenodd" d="M108.07 0H239V74C239 74.0456 239 74.0912 239 74.1368V132C239 148.569 225.569 162 209 162H186C169.431 162 156 148.569 156 132V114H30C13.4315 114 0 100.569 0 84V52H108.07V0Z"/>
    </mask>
    <path fill-rule="evenodd" clip-rule="evenodd" d="M108.07 0H239V74C239 74.0456 239 74.0912 239 74.1368V132C239 148.569 225.569 162 209 162H186C169.431 162 156 148.569 156 132V114H30C13.4315 114 0 100.569 0 84V52H108.07V0Z" fill="#E35656" fill-opacity="0.7"/>
    <path d="M239 0H242V-3H239V0ZM108.07 0V-3H105.07V0H108.07ZM239 74.1368L236 74.1238V74.1368H239ZM156 114H159V111H156V114ZM0 52V49H-3V52H0ZM108.07 52V55H111.07V52H108.07ZM239 -3H108.07V3H239V-3ZM242 74V0H236V74H242ZM242 74.1499C242 74.1003 242 74.0503 242 74H236C236 74.0409 236 74.0822 236 74.1238L242 74.1499ZM236 74.1368V132H242V74.1368H236ZM236 132C236 146.912 223.912 159 209 159V165C227.225 165 242 150.225 242 132H236ZM209 159H186V165H209V159ZM186 159C171.088 159 159 146.912 159 132H153C153 150.225 167.775 165 186 165V159ZM159 132V114H153V132H159ZM30 117H156V111H30V117ZM-3 84C-3 102.225 11.7746 117 30 117V111C15.0883 111 3 98.9117 3 84H-3ZM-3 52V84H3V52H-3ZM108.07 49H0V55H108.07V49ZM105.07 0V52H111.07V0H105.07Z" fill="black" mask="url(#path-1-inside-1_312_211)"/>
</svg>
