<svg width="239" height="140" viewBox="0 0 239 140" fill="none" xmlns="http://www.w3.org/2000/svg">
    <mask id="path-1-inside-1_355_1756" fill="white">
        <path fill-rule="evenodd" clip-rule="evenodd" d="M108.071 0H239.001V74C239.001 74.109 239 74.2178 238.999 74.3264V110C238.999 126.569 225.568 140 208.999 140H30C13.4315 140 0 126.569 0 110V52H108.071V0ZM158 59C152.477 59 148 63.4772 148 69V114C148 119.523 152.477 124 158 124H203C208.523 124 213 119.523 213 114V69C213 63.4772 208.523 59 203 59H158Z"/>
    </mask>
    <path fill-rule="evenodd" clip-rule="evenodd" d="M108.071 0H239.001V74C239.001 74.109 239 74.2178 238.999 74.3264V110C238.999 126.569 225.568 140 208.999 140H30C13.4315 140 0 126.569 0 110V52H108.071V0ZM158 59C152.477 59 148 63.4772 148 69V114C148 119.523 152.477 124 158 124H203C208.523 124 213 119.523 213 114V69C213 63.4772 208.523 59 203 59H158Z" fill="#E35656" fill-opacity="0.7"/>
    <path d="M239.001 0H242.001V-3H239.001V0ZM108.071 0V-3H105.071V0H108.071ZM238.999 74.3264L235.999 74.2944L235.999 74.3104V74.3264H238.999ZM0 52V49H-3V52H0ZM108.071 52V55H111.071V52H108.071ZM239.001 -3H108.071V3H239.001V-3ZM242.001 74V0H236.001V74H242.001ZM241.999 74.3585C242 74.2391 242.001 74.1196 242.001 74H236.001C236.001 74.0983 236 74.1964 235.999 74.2944L241.999 74.3585ZM241.999 110V74.3264H235.999V110H241.999ZM208.999 143C227.225 143 241.999 128.225 241.999 110H235.999C235.999 124.912 223.911 137 208.999 137V143ZM30 143H208.999V137H30V143ZM-3 110C-3 128.225 11.7746 143 30 143V137C15.0883 137 3 124.912 3 110H-3ZM-3 52V110H3V52H-3ZM108.071 49H0V55H108.071V49ZM105.071 0V52H111.071V0H105.071ZM151 69C151 65.134 154.134 62 158 62V56C150.82 56 145 61.8203 145 69H151ZM151 114V69H145V114H151ZM158 121C154.134 121 151 117.866 151 114H145C145 121.18 150.82 127 158 127V121ZM203 121H158V127H203V121ZM210 114C210 117.866 206.866 121 203 121V127C210.18 127 216 121.18 216 114H210ZM210 69V114H216V69H210ZM203 62C206.866 62 210 65.134 210 69H216C216 61.8203 210.18 56 203 56V62ZM158 62H203V56H158V62Z" fill="black" mask="url(#path-1-inside-1_355_1756)"/>
</svg>
